# xmcd
#
# Track frame offsets: 
#        182
#        17120
#        32957
#        54697
#        73392
#        99867
#        115770
#        140692
#        157750
#        182752
#        194395
#
# Disc length: 2685 seconds
#
# Revision: 6
# Processed by: cddbd v1.5.2PL0 Copyright (c) Steve Scherf et al.
# Submitted via: ExactAudioCopy v0.99pb4
#
DISCID=980a7b0b
DTITLE=Michel'le - Michel'le
DYEAR=1989
DGENRE=R&B
TTITLE0=No More Lies
TTITLE1=Nicety
TTITLE2=If?
TTITLE3=Keep Watchin
TTITLE4=Something In My Heart
TTITLE5=100% Woman
TTITLE6=Silly Love Song
TTITLE7=Never Been In Love
TTITLE8=Close To Me
TTITLE9=Special Thanks
TTITLE10=If? (Reprise)
EXTD=YEAR: 1989
EXTT0=
EXTT1=
EXTT2=
EXTT3=
EXTT4=
EXTT5=
EXTT6=
EXTT7=
EXTT8=
EXTT9=
EXTT10=
PLAYORDER=
